<svg version="1.1" xmlns="http://www.w3.org/2000/svg" width="1024" height="1024">

<path d="M0 0 C0.73627121 0.28527557 1.47254242 0.57055115 2.23112488 0.86447144 C3.75467328 1.45762407 5.27387225 2.06206977 6.78851318 2.6776123 C8.81582209 3.50032588 10.85145252 4.29127746 12.89697266 5.06738281 C16.1702532 6.31189626 19.43192489 7.58393767 22.6907959 8.86566162 C26.49703892 10.36228474 30.3072498 11.84875051 34.1171875 13.3359375 C34.94838104 13.66056976 35.77957458 13.98520203 36.63595581 14.31967163 C48.81958481 19.07253803 61.03066585 23.75449616 73.23828125 28.4453125 C74.41975739 28.89940491 75.60123352 29.35349731 76.81851196 29.8213501 C83.54142087 32.40524266 90.26464348 34.98831712 96.98828125 37.5703125 C96.4469133 89.04227067 88.0754341 139.27835101 50.98828125 177.5703125 C50.116875 178.48167969 49.24546875 179.39304687 48.34765625 180.33203125 C43.62571 185.17709573 38.82020608 190.05400488 32.98828125 193.5703125 C32.32828125 193.5703125 31.66828125 193.5703125 30.98828125 193.5703125 C30.7327392 185.8691254 30.53763359 178.16838021 30.41834736 170.46391201 C30.36107106 166.88546368 30.28350064 163.30992649 30.15844727 159.7331543 C30.03837369 156.27694042 29.9730546 152.82351282 29.94463158 149.36537361 C29.91458856 147.41309091 29.82878842 145.4619222 29.74201965 143.51133728 C29.73950682 139.87984245 29.84886843 137.02198836 30.98828125 133.5703125 C33.60452253 131.07960054 36.09660406 129.54026726 39.32072449 127.92738342 C44.08535118 125.50346636 46.97054508 121.485618 48.98828125 116.5703125 C49.35332813 113.66931323 49.35332813 113.66931323 49.40234375 110.4921875 C49.46035156 108.75195312 49.46035156 108.75195312 49.51953125 106.9765625 C49.55046875 105.77 49.58140625 104.5634375 49.61328125 103.3203125 C49.67128906 101.48726562 49.67128906 101.48726562 49.73046875 99.6171875 C49.82470233 96.6017131 49.9103158 93.58624422 49.98828125 90.5703125 C45.91740595 92.4485224 41.85828075 94.35089951 37.80078125 96.2578125 C36.65029297 96.78826172 35.49980469 97.31871094 34.31445312 97.86523438 C33.20263672 98.39052734 32.09082031 98.91582031 30.9453125 99.45703125 C29.9241333 99.93358154 28.9029541 100.41013184 27.85083008 100.90112305 C22.19320502 104.2001578 18.84883568 108.29712065 16.98828125 114.5703125 C16.61214464 117.71487475 16.65095893 120.81158371 16.71459961 123.97460938 C16.72047089 124.89097672 16.72634216 125.80734406 16.73239136 126.7514801 C16.74598952 128.73106449 16.76592229 130.71061351 16.79154778 132.69007874 C16.82856601 135.82642668 16.84091657 138.9619568 16.84559631 142.09851074 C16.8603205 151.01226478 16.89565064 159.92523605 17.00512695 168.83837891 C17.07043588 174.29984537 17.08707003 179.75963886 17.07242012 185.22145081 C17.07620467 187.29793141 17.09824545 189.3744638 17.13908195 191.45054626 C17.44886483 207.68074735 17.44886483 207.68074735 13.85354614 212.33203125 C11.28157243 214.16414003 8.9002071 215.37274296 5.98828125 216.5703125 C4.41078394 217.52512968 2.84537204 218.50063183 1.30078125 219.5078125 C-2.53338123 221.82319994 -5.56099745 222.01064982 -10.01171875 221.5703125 C-12.55693661 220.41160558 -14.72975979 219.28462574 -17.07421875 217.8203125 C-17.66009766 217.47226562 -18.24597656 217.12421875 -18.84960938 216.765625 C-20.58762915 215.72397053 -22.30546158 214.66335894 -24.01171875 213.5703125 C-25.02567719 213.07175751 -26.03963562 212.57320251 -27.08432007 212.05953979 C-30.43711048 209.20859316 -30.43711048 209.20859316 -30.73756409 205.55001831 C-30.75744447 203.88482927 -30.74426738 202.21905148 -30.70532227 200.55419922 C-30.70792053 199.64308884 -30.7105188 198.73197845 -30.7131958 197.79325867 C-30.71491073 195.81528339 -30.70278064 193.83725882 -30.6784687 191.85943222 C-30.64028617 188.72216016 -30.63855998 185.58672272 -30.64622498 182.44924927 C-30.65556197 175.7809846 -30.61665792 169.11341697 -30.57421875 162.4453125 C-30.52943888 154.73691642 -30.50460518 147.02914669 -30.51878166 139.32062149 C-30.51567944 136.24153458 -30.48200816 133.16379151 -30.44667053 130.08493042 C-30.06440287 116.44679748 -30.06440287 116.44679748 -36.01171875 104.5703125 C-38.94572208 102.31887821 -41.90100278 100.7257794 -45.26171875 99.1953125 C-46.06996094 98.79699219 -46.87820313 98.39867187 -47.7109375 97.98828125 C-53.07640642 95.36993242 -58.54386163 92.96598924 -64.01171875 90.5703125 C-63.93051045 94.61278115 -63.81769294 98.65377786 -63.69921875 102.6953125 C-63.66538086 104.40847656 -63.66538086 104.40847656 -63.63085938 106.15625 C-63.39859698 113.41972869 -62.76841812 118.31239506 -57.94921875 124.0078125 C-55.24014473 126.56778065 -55.24014473 126.56778065 -52.57937622 127.85865784 C-48.44316523 130.1691211 -45.53032158 131.89065163 -44.09051514 136.55392456 C-43.75748442 140.2677388 -43.73100719 143.86981235 -43.81640625 147.59765625 C-43.81261409 148.9553057 -43.80441612 150.31294931 -43.79202271 151.67054749 C-43.7713044 155.22428262 -43.80998913 158.77492307 -43.86151123 162.32824707 C-43.90353357 165.96170379 -43.88875355 169.59489476 -43.87890625 173.22851562 C-43.86792023 180.34319512 -43.91975404 187.45615772 -44.01171875 194.5703125 C-70.544701 181.66321577 -89.0409555 150.71581411 -98.62280273 123.77416992 C-99.44214008 121.37975832 -100.23451114 118.97870887 -101.01171875 116.5703125 C-101.24874512 115.84215332 -101.48577148 115.11399414 -101.72998047 114.36376953 C-109.55389794 89.60757672 -110.69128339 63.34326013 -111.01171875 37.5703125 C-109.94590576 37.16006836 -108.88009277 36.74982422 -107.78198242 36.32714844 C-82.69411992 26.66702411 -57.64097601 16.92174455 -32.62182617 7.08496094 C-31.04720863 6.46616562 -31.04720863 6.46616562 -29.44078064 5.83486938 C-27.48356372 5.0655938 -25.52656599 4.29576017 -23.56983948 3.52523804 C-21.84043963 2.84542485 -20.10833065 2.17244833 -18.37312317 1.50759888 C-16.85452284 0.90483749 -15.35144927 0.26046784 -13.87236023 -0.43362427 C-8.4760973 -2.8568878 -5.36279121 -2.25988628 0 0 Z " fill="#D73339" transform="translate(519.01171875,320.4296875)" data-index="1"></path>
<path d="M0 0 C0.91644287 0.00563965 1.83288574 0.0112793 2.77709961 0.01708984 C19.92466242 0.32240564 34.37404535 6.21134629 46.6875 18.3125 C53.6875 26.83689024 53.6875 26.83689024 53.6875 30.3125 C53.15402954 30.51659485 52.62055908 30.7206897 52.07092285 30.93096924 C46.48811152 33.06775651 40.90751077 35.21024162 35.328125 37.35595703 C33.24925278 38.15460337 31.16983267 38.95182513 29.08984375 39.74755859 C26.08967099 40.89561321 23.09154588 42.04888038 20.09375 43.203125 C19.17259399 43.55433411 18.25143799 43.90554321 17.30236816 44.26739502 C7.65336234 47.57682647 7.65336234 47.57682647 -0.28759766 53.57617188 C-1.61186054 57.11174558 -1.74185267 60.36975989 -1.7109375 64.09375 C-1.71516724 64.85133102 -1.71939697 65.60891205 -1.72375488 66.38945007 C-1.73017351 68.86422402 -1.71121564 71.3378417 -1.6875 73.8125 C-1.68052094 75.08669296 -1.68052094 75.08669296 -1.67340088 76.3866272 C-1.37104854 123.54639279 7.62417874 171.9734049 36.6875 210.3125 C37.36296875 211.22902344 38.0384375 212.14554688 38.734375 213.08984375 C47.44093067 224.62579443 47.44093067 224.62579443 58.6875 233.3125 C58.3575 233.9725 58.0275 234.6325 57.6875 235.3125 C41.32901343 228.89160556 25.05345613 222.28331682 8.86547852 215.44332886 C7.08690995 214.69229346 5.30745456 213.94335457 3.52709961 213.19656372 C1.0048719 212.13747726 -1.51362975 211.06998543 -4.03125 210 C-4.78011475 209.68683334 -5.52897949 209.37366669 -6.30053711 209.05101013 C-12.11064495 206.5629037 -17.42460401 203.79727738 -21.5625 198.875 C-22.04203125 198.31941406 -22.5215625 197.76382813 -23.015625 197.19140625 C-25.59829532 193.44964594 -26.56031654 189.94600313 -26.58374023 185.43383789 C-26.59392685 184.4925856 -26.60411346 183.55133331 -26.61460876 182.58155823 C-26.61674881 181.57624557 -26.61888885 180.57093292 -26.62109375 179.53515625 C-26.64624924 177.39127327 -26.67164733 175.24739312 -26.69726562 173.10351562 C-26.72601757 169.73511461 -26.75004586 166.36676271 -26.76879883 162.99829102 C-26.79047493 159.73949159 -26.8299104 156.48125903 -26.87109375 153.22265625 C-26.87120956 152.21936783 -26.87132538 151.21607941 -26.8714447 150.18238831 C-26.94684046 144.84426072 -27.2075071 140.87021684 -30.3125 136.3125 C-32.6661257 134.74733891 -34.79447497 133.53003342 -37.3125 132.3125 C-38.77323961 131.55147599 -40.23147806 130.7856366 -41.6875 130.015625 C-42.81961914 129.41947388 -42.81961914 129.41947388 -43.97460938 128.8112793 C-53.11470387 123.92911729 -60.78652317 119.57422374 -64.3125 109.3125 C-64.58665466 106.4002533 -64.58665466 106.4002533 -64.61889648 103.15209961 C-64.63488388 101.92990219 -64.65087128 100.70770477 -64.66734314 99.44847107 C-64.67270584 98.13387405 -64.67806854 96.81927704 -64.68359375 95.46484375 C-64.692574 94.08826101 -64.70169608 92.71167918 -64.71095276 91.33509827 C-64.72742003 88.44936768 -64.7351377 85.56375271 -64.73803711 82.67797852 C-64.74339403 79.01202782 -64.78096933 75.34719319 -64.82678127 71.68155575 C-64.85680367 68.83559909 -64.86376617 65.98990184 -64.86476326 63.14380074 C-64.87092229 61.14547552 -64.90027115 59.147264 -64.93028259 57.14915466 C-64.88803239 48.49948511 -63.24822733 42.00335707 -59.3125 34.3125 C-58.85656967 33.41599228 -58.40063934 32.51948456 -57.93089294 31.59580994 C-50.09241621 16.80758334 -35.87935997 7.47650643 -20.3125 2.3125 C-13.52877793 0.57644115 -6.98837177 -0.04546761 0 0 Z " fill="#D73338" transform="translate(385.3125,288.6875)" data-index="2" style="opacity: 1;"></path>
<path d="M0 0 C11.97748966 8.4947213 20.18490028 20.84052453 24 35 C24.54588582 39.79261858 24.56187578 44.5355456 24.53125 49.35546875 C24.53395303 50.71064023 24.53784215 52.0658098 24.54284668 53.42097473 C24.54869781 56.24071996 24.54031897 59.05995357 24.52148438 61.87963867 C24.49862998 65.4740018 24.511885 69.06717405 24.53577423 72.66149426 C24.55029616 75.45242636 24.54559845 78.24308045 24.53526306 81.03402138 C24.53134185 82.99698804 24.54337283 84.95996601 24.55578613 86.92289734 C24.47417851 94.72323717 23.95794233 100.70341459 18.45611572 106.67597961 C12.87252362 112.03004923 5.54363604 115.16906038 -1.2578125 118.67578125 C-2.20914063 119.17722656 -3.16046875 119.67867187 -4.140625 120.1953125 C-5.43274902 120.86071045 -5.43274902 120.86071045 -6.75097656 121.53955078 C-9.72566346 123.47122436 -11.51094639 125.42114117 -12.56980896 128.83956909 C-13.03169714 131.15918387 -13.13158571 133.27690364 -13.1418457 135.64160156 C-13.14888016 136.55645325 -13.15591461 137.47130493 -13.16316223 138.41387939 C-13.16940865 139.88736847 -13.16940865 139.88736847 -13.17578125 141.390625 C-13.1989832 143.48308294 -13.22310069 145.57553088 -13.24804688 147.66796875 C-13.2831124 150.95726173 -13.31248442 154.24618762 -13.32592773 157.53564453 C-13.34146364 160.7169207 -13.38171133 163.89713242 -13.42578125 167.078125 C-13.42387283 168.05235413 -13.42196442 169.02658325 -13.41999817 170.03033447 C-13.54973933 177.32705644 -15.08013185 182.5731996 -19.85058594 188.171875 C-24.39930366 191.9825167 -28.78271273 194.71464445 -34.25 197 C-35.07137451 197.35682861 -35.89274902 197.71365723 -36.73901367 198.08129883 C-39.81762161 199.4081017 -42.90788086 200.70498764 -46 202 C-47.4013071 202.59008827 -48.802505 203.18043591 -50.20361328 203.77099609 C-60.07157293 207.92669199 -69.95113225 212.05421701 -79.85748291 216.11761475 C-82.03228913 217.01329812 -84.20242495 217.91972318 -86.37255859 218.82666016 C-87.74168541 219.39137879 -89.11098112 219.95568819 -90.48046875 220.51953125 C-91.68985107 221.02202393 -92.8992334 221.5245166 -94.14526367 222.04223633 C-95.08732666 222.35829834 -96.02938965 222.67436035 -97 223 C-97.66 222.67 -98.32 222.34 -99 222 C-98.38253906 221.47792969 -97.76507812 220.95585938 -97.12890625 220.41796875 C-90.64594398 214.78361341 -85.2435537 208.78795134 -80 202 C-79.25878906 201.07445312 -78.51757812 200.14890625 -77.75390625 199.1953125 C-71.55794714 191.27049825 -66.63476979 182.89667496 -62 174 C-61.65050293 173.33371582 -61.30100586 172.66743164 -60.94091797 171.98095703 C-43.91635422 139.06039722 -38.88419376 101.12061273 -38.70483398 64.46533203 C-38.69317669 62.80736857 -38.67251555 61.14944642 -38.64331055 59.49169922 C-38.60067094 57.0567154 -38.58449067 54.6228103 -38.57421875 52.1875 C-38.55671066 51.45305664 -38.53920258 50.71861328 -38.52116394 49.96191406 C-38.54276033 44.83052342 -39.70172941 41.9081671 -43 38 C-44.71647874 36.71307359 -44.71647874 36.71307359 -46.640625 36.0859375 C-47.72972168 35.66538086 -47.72972168 35.66538086 -48.84082031 35.23632812 C-49.63584961 34.95208984 -50.43087891 34.66785156 -51.25 34.375 C-52.08885742 34.05724609 -52.92771484 33.73949219 -53.79199219 33.41210938 C-55.72002907 32.68493297 -57.65164372 31.96720158 -59.5859375 31.25683594 C-63.54470955 29.79947334 -67.49128944 28.3112719 -71.4375 26.8203125 C-79.28396668 23.85941248 -87.13964605 20.92382901 -95 18 C-93.37696956 13.62807385 -91.20999867 10.52652264 -88.0625 7.125 C-87.57668457 6.5990625 -87.09086914 6.073125 -86.59033203 5.53125 C-63.76968519 -18.34039603 -26.43795677 -16.96785268 0 0 Z " fill="#D73339" transform="translate(679,301)" data-index="3" style="opacity: 1;"></path>
<path d="M0 0 C6.71479959 3.64517692 11.63909807 8.26334454 16.32421875 14.26171875 C17.46890625 12.74578125 17.46890625 12.74578125 18.63671875 11.19921875 C24.7093427 4.12166885 34.26594058 -1.88841591 43.67626953 -3.02148438 C46.19205892 -3.13968591 48.68107138 -3.15470366 51.19921875 -3.11328125 C52.08327393 -3.10385498 52.9673291 -3.09442871 53.87817383 -3.0847168 C60.09644211 -2.94066647 65.62163625 -2.38172136 71.32421875 0.26171875 C72.46697266 0.7721875 72.46697266 0.7721875 73.6328125 1.29296875 C83.77042881 6.35322917 89.50457843 13.70442964 93.32421875 24.26171875 C94.59511413 28.13104854 94.46474737 32.01681808 94.45361328 36.04370117 C94.45624176 37.21259636 94.45624176 37.21259636 94.45892334 38.40510559 C94.46331794 40.97582233 94.46041314 43.54647008 94.45703125 46.1171875 C94.45770477 47.90269484 94.4586752 49.68820208 94.45993042 51.47370911 C94.46140398 55.21189244 94.45926304 58.95005187 94.45458984 62.68823242 C94.44888036 67.4904148 94.45218141 72.29254144 94.45816231 77.09472179 C94.46176658 80.77916386 94.46063017 84.46359259 94.45803452 88.14803505 C94.45736552 89.91954874 94.45819273 91.69106362 94.46051407 93.46257591 C94.46303974 95.93105685 94.45920181 98.39944587 94.45361328 100.86791992 C94.45563751 101.60609955 94.45766174 102.34427917 94.45974731 103.10482788 C94.43848403 108.14745347 94.43848403 108.14745347 93.32421875 109.26171875 C89.01774239 109.51514111 84.69976821 109.44694513 80.38671875 109.44921875 C78.55850586 109.46758789 78.55850586 109.46758789 76.69335938 109.48632812 C74.95022461 109.48922852 74.95022461 109.48922852 73.171875 109.4921875 C72.09945557 109.49629639 71.02703613 109.50040527 69.92211914 109.50463867 C67.32421875 109.26171875 67.32421875 109.26171875 65.32421875 107.26171875 C65.07266235 104.50695801 65.07266235 104.50695801 65.06884766 100.95117188 C65.06341698 99.97996399 65.06341698 99.97996399 65.05787659 98.98913574 C65.05097523 97.58030101 65.04847854 96.1714395 65.04982376 94.7625885 C65.0507891 92.5247702 65.03784233 90.28743225 65.02084351 88.04968262 C64.97460163 81.68615565 64.95000849 75.32267347 64.94335938 68.95898438 C64.93831116 65.06609928 64.9138847 61.1737078 64.87803268 57.2809906 C64.86830024 55.8044279 64.86586657 54.32779667 64.87120438 52.85121155 C64.97961465 39.30204929 64.97961465 39.30204929 58.84170532 27.58874512 C53.31040999 22.72422231 47.90392415 22.85974492 40.8515625 22.91796875 C34.39669892 23.54701415 30.98233509 26.25452528 26.94921875 31.13671875 C24.06568884 36.68196858 23.07647323 41.86977074 23.03710938 48.08325195 C23.01698792 50.05483025 23.01698792 50.05483025 22.99645996 52.0662384 C22.99389694 52.75837748 22.99133392 53.45051655 22.98869324 54.16362953 C22.98034423 56.34503407 22.95979053 58.52603189 22.93615723 60.70732117 C22.88000058 66.11723193 22.84444432 71.52724058 22.80853271 76.93731689 C22.77732441 81.5251744 22.73819742 86.11282821 22.6882782 90.70052147 C22.66819273 92.85101896 22.65989118 95.00136001 22.65197754 97.15193176 C22.63185608 99.09986885 22.63185608 99.09986885 22.61132812 101.0871582 C22.60403687 102.23408646 22.59674561 103.38101471 22.5892334 104.56269836 C22.32421875 107.26171875 22.32421875 107.26171875 20.32421875 109.26171875 C17.83398438 109.52050781 17.83398438 109.52050781 14.73046875 109.52734375 C13.61800781 109.52992188 12.50554687 109.5325 11.359375 109.53515625 C10.19277344 109.52742187 9.02617188 109.5196875 7.82421875 109.51171875 C6.65761719 109.51945313 5.49101563 109.5271875 4.2890625 109.53515625 C3.17660156 109.53257812 2.06414062 109.53 0.91796875 109.52734375 C-0.10619141 109.52508789 -1.13035156 109.52283203 -2.18554688 109.52050781 C-4.67578125 109.26171875 -4.67578125 109.26171875 -6.67578125 107.26171875 C-6.93406677 104.54492188 -6.93406677 104.54492188 -6.94702148 101.04296875 C-6.96230141 99.07952515 -6.96230141 99.07952515 -6.97789001 97.07641602 C-6.97883101 96.37396759 -6.979772 95.67151917 -6.9807415 94.94778442 C-6.98440516 92.74357241 -7.00113633 90.53981044 -7.02149963 88.33569336 C-7.07687627 82.0677941 -7.1074262 75.79982544 -7.13208008 69.53173828 C-7.14807065 65.69727019 -7.17842109 61.8631139 -7.21684456 58.02880859 C-7.2284083 56.5745783 -7.23442415 55.12029189 -7.23452568 53.66601562 C-6.84684894 40.37853558 -6.84684894 40.37853558 -12.05662537 28.62329102 C-17.70587019 23.68202227 -22.31540202 22.80661392 -29.6328125 22.94921875 C-35.48531934 23.55024641 -39.6538156 25.8278399 -43.55078125 30.19921875 C-47.05837463 35.25427979 -47.92583121 38.9884045 -47.96289062 45.1315918 C-47.97314018 46.13736267 -47.97314018 46.13736267 -47.9835968 47.16345215 C-47.99713228 48.61152003 -48.00621919 50.05963499 -48.01130676 51.50775719 C-48.01962118 53.79821176 -48.04014578 56.08827248 -48.06384277 58.37861633 C-48.12014577 64.0623442 -48.15552872 69.7461672 -48.19146729 75.43005371 C-48.22267175 80.24218554 -48.26181243 85.0541231 -48.3117218 89.8660984 C-48.3318242 92.12516974 -48.34011405 94.38409203 -48.34802246 96.64323425 C-48.36098909 98.02217154 -48.37450855 99.40110378 -48.38867188 100.7800293 C-48.39596313 101.98628464 -48.40325439 103.19253998 -48.4107666 104.43534851 C-48.67578125 107.26171875 -48.67578125 107.26171875 -50.67578125 109.26171875 C-53.2578125 109.52050781 -53.2578125 109.52050781 -56.48828125 109.52734375 C-57.64585937 109.52992188 -58.8034375 109.5325 -59.99609375 109.53515625 C-61.21039063 109.52742187 -62.4246875 109.5196875 -63.67578125 109.51171875 C-64.89007813 109.51945313 -66.104375 109.5271875 -67.35546875 109.53515625 C-69.09183594 109.53128906 -69.09183594 109.53128906 -70.86328125 109.52734375 C-72.46236328 109.52395996 -72.46236328 109.52395996 -74.09375 109.52050781 C-76.67578125 109.26171875 -76.67578125 109.26171875 -78.67578125 107.26171875 C-78.92467022 105.34735775 -78.92467022 105.34735775 -78.92301941 102.96580505 C-78.9272139 102.0641864 -78.93140839 101.16256775 -78.93572998 100.23362732 C-78.93011047 99.24185989 -78.92449097 98.25009247 -78.91870117 97.22827148 C-78.92059952 96.18595367 -78.92249786 95.14363586 -78.92445374 94.06973267 C-78.9281698 90.61151701 -78.91744612 87.15350961 -78.90625 83.6953125 C-78.90505865 81.30160039 -78.90460494 78.90788781 -78.90486145 76.51417542 C-78.90329519 71.49290041 -78.89499408 66.47169656 -78.8815918 61.45043945 C-78.86459262 54.99808302 -78.86077763 48.54580481 -78.86153698 42.09342861 C-78.86126571 37.14967597 -78.85579166 32.2059406 -78.84853554 27.26219368 C-78.84534243 24.88222446 -78.84337997 22.50225328 -78.84264183 20.12228203 C-78.84048556 16.8034109 -78.83175712 13.48462455 -78.82104492 10.16577148 C-78.82149811 9.17197983 -78.82195129 8.17818817 -78.82241821 7.15428162 C-78.81815323 6.25548279 -78.81388824 5.35668396 -78.80949402 4.4306488 C-78.80781817 3.64511344 -78.80614233 2.85957808 -78.8044157 2.05023861 C-78.67578125 0.26171875 -78.67578125 0.26171875 -77.67578125 -0.73828125 C-75.68821097 -0.83811183 -73.69710605 -0.86908878 -71.70703125 -0.87109375 C-70.49660156 -0.87238281 -69.28617187 -0.87367188 -68.0390625 -0.875 C-66.76417969 -0.87113281 -65.48929687 -0.86726562 -64.17578125 -0.86328125 C-62.26345703 -0.86908203 -62.26345703 -0.86908203 -60.3125 -0.875 C-58.49685547 -0.87306641 -58.49685547 -0.87306641 -56.64453125 -0.87109375 C-55.52498047 -0.86996582 -54.40542969 -0.86883789 -53.25195312 -0.86767578 C-50.67578125 -0.73828125 -50.67578125 -0.73828125 -49.67578125 0.26171875 C-49.44214244 2.11063821 -49.2627449 3.96659906 -49.11328125 5.82421875 C-48.98759766 7.34208984 -48.98759766 7.34208984 -48.859375 8.890625 C-48.79878906 9.67308594 -48.73820312 10.45554687 -48.67578125 11.26171875 C-48.3096875 10.82601562 -47.94359375 10.3903125 -47.56640625 9.94140625 C-35.81351152 -2.98677796 -16.05272546 -7.00616655 0 0 Z " fill="#1C2730" transform="translate(539.67578125,623.73828125)" data-index="4" style="opacity: 1;"></path>
<path d="M0 0 C0.8971875 0.44730469 1.794375 0.89460937 2.71875 1.35546875 C12.29198715 6.60667089 17.64523643 13.87008372 21.03753662 24.14152527 C22.03702757 28.14844194 22.28244186 31.82727787 22.25878906 35.9230957 C22.2622937 36.68168381 22.26579834 37.44027191 22.26940918 38.22184753 C22.27814797 40.70658762 22.27240834 43.19103874 22.265625 45.67578125 C22.26697321 47.40976516 22.26891504 49.1437487 22.27142334 50.87773132 C22.27436334 54.49966047 22.27011059 58.1214906 22.26074219 61.7434082 C22.24930556 66.39188854 22.2559407 71.04013898 22.26788712 75.68861103 C22.27509977 79.263298 22.27282128 82.83793005 22.26763153 86.41261864 C22.26629559 88.12748428 22.26794081 89.84235488 22.27259064 91.55721474 C22.27765079 93.94623767 22.26995506 96.33488232 22.25878906 98.72387695 C22.26283752 99.43504669 22.26688599 100.14621643 22.27105713 100.87893677 C22.22853819 105.77146181 22.22853819 105.77146181 20 108 C17.47802734 108.22705078 17.47802734 108.22705078 14.3359375 108.1953125 C13.21445312 108.18886719 12.09296875 108.18242188 10.9375 108.17578125 C9.1740625 108.15064453 9.1740625 108.15064453 7.375 108.125 C6.19164062 108.11597656 5.00828125 108.10695313 3.7890625 108.09765625 C0.85917477 108.07402812 -2.0703134 108.04108514 -5 108 C-6.54379132 104.3162378 -7.44683414 100.96435532 -8 97 C-8.52207031 97.53109375 -9.04414063 98.0621875 -9.58203125 98.609375 C-19.31893061 107.95407 -30.22964488 110.41352248 -43.484375 110.27734375 C-52.63320078 109.55560305 -61.50339558 106.67459358 -68 100 C-74.98706719 91.54532965 -77.63216654 83.13679825 -77.3515625 72.21875 C-76.52710324 64.67036741 -73.50253386 58.26329326 -68 53 C-55.24754104 42.98919396 -39.00796803 42.38918652 -23.5 42.25 C-21.88668827 42.22174187 -20.2734051 42.19180137 -18.66015625 42.16015625 C-14.77349121 42.08747877 -10.8871597 42.03720384 -7 42 C-7.27778307 39.90750543 -7.56791507 37.81664761 -7.86328125 35.7265625 C-8.10365112 33.97980225 -8.10365112 33.97980225 -8.34887695 32.19775391 C-9.28015614 27.62411507 -10.4451947 26.00183558 -14 23 C-20.41569508 19.15058295 -27.25481552 18.88610693 -34.49609375 20.5859375 C-38.07285506 21.90083458 -40.38998775 22.85013665 -42.22265625 26.3046875 C-42.60292969 27.13226562 -42.98320312 27.95984375 -43.375 28.8125 C-44.74609375 31.19921875 -44.74609375 31.19921875 -47 33 C-53.24249226 34.02133219 -59.79181159 32.88171551 -66 32 C-67.06758545 31.85256348 -67.06758545 31.85256348 -68.15673828 31.70214844 C-69.77219691 31.47537462 -71.38629112 31.2389071 -73 31 C-73.93803679 23.87092043 -70.27847617 18.23091078 -66.30859375 12.6015625 C-51.66761012 -5.309954 -20.53248686 -10.49366022 0 0 Z " fill="#1C2730" transform="translate(419,625)" data-index="5" style="opacity: 1;"></path>
<path d="M0 0 C1.03898437 -0.02900391 2.07796875 -0.05800781 3.1484375 -0.08789062 C16.58806633 -0.1968153 28.91920427 5.49044199 38.84765625 14.5078125 C49.16807516 25.77975939 53.65473682 40.17040669 53.625 55.1875 C53.62886719 57.16363281 53.62886719 57.16363281 53.6328125 59.1796875 C53.5 62.3125 53.5 62.3125 52.5 63.3125 C50.06603981 63.40748646 47.66057048 63.43808417 45.22631836 63.42602539 C44.08493156 63.42624443 44.08493156 63.42624443 42.92048645 63.4264679 C40.39357702 63.42576862 37.86674038 63.41797555 35.33984375 63.41015625 C33.5924941 63.40829212 31.84514393 63.4068682 30.09779358 63.40586853 C25.48968066 63.40204293 20.88159905 63.39221229 16.27349854 63.38116455 C11.57491479 63.37095134 6.87632601 63.3663711 2.17773438 63.36132812 C-7.04819087 63.35059005 -16.27409284 63.33351313 -25.5 63.3125 C-25.04213342 65.40879967 -24.5772477 67.50356713 -24.109375 69.59765625 C-23.85124023 70.76433838 -23.59310547 71.93102051 -23.32714844 73.13305664 C-21.56911056 79.89070931 -17.13200114 84.42513123 -11.5 88.3125 C-4.53829712 91.87825026 4.99952871 91.28353192 12.5234375 89.66015625 C17.03731874 88.04210344 19.87425359 86.13478519 23.0625 82.5625 C25.92672354 79.46622131 25.92672354 79.46622131 28.4375 78.79296875 C30.86215346 78.74394083 33.09620909 78.97359343 35.5 79.3125 C37.3253125 79.54646484 37.3253125 79.54646484 39.1875 79.78515625 C42.63262578 80.25399897 46.06653843 80.76549048 49.5 81.3125 C48.45843011 91.83106998 41.98466332 98.62223489 34.1796875 105.3359375 C20.7329057 115.2544092 4.53806137 115.63344075 -11.5 114.3125 C-20.99274416 112.79089438 -29.18364222 108.47857118 -36.5 102.3125 C-37.13292969 101.79042969 -37.76585937 101.26835938 -38.41796875 100.73046875 C-49.02974625 91.10256466 -54.12629413 77.16126068 -54.84375 63.109375 C-55.31311422 46.23942883 -52.57656201 31.13816752 -41.1875 18 C-29.49712472 5.86223931 -16.83648563 0.15213692 0 0 Z " fill="#1C2730" transform="translate(277.5,620.6875)" data-index="6"></path>
<path d="M0 0 C1.20970459 0.00523682 2.41940918 0.01047363 3.66577148 0.01586914 C4.97094727 0.0190918 6.27612305 0.02231445 7.62084961 0.02563477 C9.00952213 0.03399138 10.39819401 0.04245634 11.78686523 0.05102539 C13.17944179 0.05603873 14.57202005 0.06060193 15.96459961 0.06469727 C19.38456394 0.07653105 22.80444367 0.09301659 26.22436523 0.11352539 C25.6929915 6.58004987 24.03617148 11.94827413 21.67358398 17.96899414 C21.30746002 18.92392258 20.94133606 19.87885101 20.56411743 20.86271667 C19.3548042 24.01200606 18.13326588 27.15640651 16.91186523 30.30102539 C16.06018335 32.51303737 15.20953396 34.72544713 14.35986328 36.93823242 C13.02739805 40.4083113 11.69436393 43.87815686 10.35816956 47.34680176 C7.13490323 55.71808845 3.9522738 64.10397992 0.79467773 72.50024414 C0.35241348 73.67598495 -0.08985077 74.85172577 -0.54551697 76.06309509 C-2.26754115 80.6431363 -3.98851055 85.22357091 -5.70742798 89.80477905 C-9.77961867 100.6530182 -13.87574017 111.49013436 -18.14672852 122.26196289 C-18.62295906 123.4724379 -18.62295906 123.4724379 -19.10881042 124.70736694 C-23.78411361 136.39542991 -29.84634863 145.52562531 -41.32250977 151.42211914 C-43.78199165 152.46472559 -46.22227275 153.33104348 -48.77563477 154.11352539 C-49.85071289 154.4499707 -49.85071289 154.4499707 -50.94750977 154.79321289 C-57.37677411 156.50611908 -64.16810768 156.75816218 -70.77563477 156.11352539 C-72.77563477 154.11352539 -72.77563477 154.11352539 -73.00268555 151.77514648 C-72.99221191 150.8220459 -72.98173828 149.86894531 -72.97094727 148.88696289 C-72.96450195 147.85571289 -72.95805664 146.82446289 -72.95141602 145.76196289 C-72.9346582 144.68172852 -72.91790039 143.60149414 -72.90063477 142.48852539 C-72.89161133 141.40055664 -72.88258789 140.31258789 -72.87329102 139.19165039 C-72.84966885 136.49872387 -72.81673032 133.80623284 -72.77563477 131.11352539 C-71.7740332 131.01555664 -70.77243164 130.91758789 -69.74047852 130.81665039 C-60.96026059 129.86827217 -54.09032383 129.06586599 -47.96313477 122.11352539 C-47.24125977 121.12352539 -46.51938477 120.13352539 -45.77563477 119.11352539 C-45.32188477 118.49477539 -44.86813477 117.87602539 -44.40063477 117.23852539 C-42.33556995 110.21730502 -46.31314879 102.38254921 -48.83422852 95.95336914 C-49.25071152 94.87010345 -49.66719452 93.78683777 -50.09629822 92.67074585 C-50.99384379 90.33979115 -51.89553607 88.01042973 -52.80096436 85.68252563 C-54.22451049 82.02177187 -55.63650242 78.35674619 -57.0456543 74.69042969 C-61.29961569 63.63049312 -65.58931348 52.58455516 -69.89424133 41.5443573 C-71.58602647 37.20080854 -73.27012443 32.85430181 -74.95315552 28.50735474 C-76.13576852 25.46427891 -77.331269 22.42647681 -78.52734375 19.38867188 C-79.24353566 17.54328898 -79.95914623 15.69768032 -80.67407227 13.85180664 C-81.00632309 13.01894135 -81.33857391 12.18607605 -81.68089294 11.32797241 C-81.97432083 10.56280304 -82.26774872 9.79763367 -82.57006836 9.00927734 C-82.95804092 8.01901299 -82.95804092 8.01901299 -83.35385132 7.00874329 C-83.77563477 5.11352539 -83.77563477 5.11352539 -82.77563477 1.11352539 C-73.20563477 1.11352539 -63.63563477 1.11352539 -53.77563477 1.11352539 C-49.27596778 11.23777611 -49.27596778 11.23777611 -47.93212891 15.22753906 C-47.62823746 16.12264694 -47.32434601 17.01775482 -47.01124573 17.93998718 C-46.69759567 18.87768448 -46.38394562 19.81538177 -46.06079102 20.78149414 C-45.55436317 22.27740837 -45.55436317 22.27740837 -45.03770447 23.80354309 C-43.96716339 26.96803044 -42.90237709 30.13441481 -41.83813477 33.30102539 C-40.77892582 36.44188589 -39.71848193 39.58232459 -38.65707397 42.72244263 C-37.9731599 44.74620242 -37.29038212 46.77034662 -36.60879517 48.79489136 C-34.377188 55.4052247 -32.04680268 61.96919792 -29.5859375 68.49755859 C-28.77563477 71.11352539 -28.77563477 71.11352539 -28.77563477 75.11352539 C-28.11563477 75.11352539 -27.45563477 75.11352539 -26.77563477 75.11352539 C-26.69095947 74.21730469 -26.60628418 73.32108398 -26.51904297 72.39770508 C-25.68387164 66.60377756 -23.68858794 61.11523423 -21.88110352 55.56665039 C-21.49247635 54.35966492 -21.10384918 53.15267944 -20.70344543 51.90911865 C-19.88143944 49.35981643 -19.05737653 46.81130293 -18.22949219 44.26391602 C-17.17873601 41.03055531 -16.13465337 37.79509246 -15.09307384 34.55876541 C-14.08746608 31.43556948 -13.0780407 28.31361036 -12.06860352 25.19165039 C-11.69865768 24.04545227 -11.32871185 22.89925415 -10.94755554 21.71832275 C-3.93992045 0.16114548 -3.93992045 0.16114548 0 0 Z " fill="#1C2730" transform="translate(862.775634765625,621.886474609375)" data-index="7"></path>
<path d="M0 0 C7.58180457 6.80473535 13.16908233 14.34004654 16.17333984 24.13964844 C15.60486328 24.66171875 15.03638672 25.18378906 14.45068359 25.72167969 C8.58259608 31.31546595 4.24220352 37.14015625 0.17333984 44.13964844 C-4.40391525 43.42698508 -8.55337077 41.81306605 -12.83837891 40.12011719 C-13.60664505 39.8202742 -14.37491119 39.52043121 -15.16645813 39.21150208 C-17.61721767 38.25389729 -20.06568394 37.29057427 -22.51416016 36.32714844 C-24.14096904 35.6907119 -25.76792086 35.05464061 -27.39501953 34.41894531 C-41.84615048 28.76562682 -41.84615048 28.76562682 -48.79467773 25.85961914 C-60.1078229 21.85115283 -69.1093052 25.33731489 -79.63916016 29.63964844 C-81.01774484 30.18957131 -82.39690076 30.73806425 -83.77661133 31.28515625 C-87.1743733 32.63637965 -90.5650739 34.00427033 -93.953125 35.37963867 C-97.64565538 36.87753378 -101.34393041 38.36116177 -105.04223633 39.84472656 C-106.73461922 40.52568913 -108.42500304 41.21164781 -110.11303711 41.90332031 C-115.61187941 44.13964844 -115.61187941 44.13964844 -117.82666016 44.13964844 C-119.27640135 42.16655669 -120.62265958 40.19176928 -121.95166016 38.13964844 C-125.70735248 32.502646 -129.77784738 27.69320983 -134.82666016 23.13964844 C-131.44425055 15.15104283 -126.93691017 9.26056207 -120.82666016 3.13964844 C-120.28396484 2.58535156 -119.74126953 2.03105469 -119.18212891 1.45996094 C-89.80517769 -26.05768957 -30.19416459 -25.69993301 0 0 Z " fill="#D73238" transform="translate(570.82666015625,268.8603515625)" data-index="8" style="opacity: 1;"></path>
<path d="M0 0 C1.78402396 1.78402396 1.13232529 4.15878397 1.13671875 6.53125 C1.13285156 7.2634375 1.12898437 7.995625 1.125 8.75 C1.12886719 9.46671875 1.13273438 10.1834375 1.13671875 10.921875 C1.12969993 14.740112 0.92035258 18.28937214 0 22 C-1.15757812 22.02578125 -2.31515625 22.0515625 -3.5078125 22.078125 C-5.04691128 22.13443349 -6.58597233 22.1917802 -8.125 22.25 C-8.88554688 22.26417969 -9.64609375 22.27835938 -10.4296875 22.29296875 C-15.69143364 22.51976815 -18.81707279 23.53470018 -23 27 C-24.74490474 29.99126527 -25.13883644 32.78683513 -25.54296875 36.171875 C-25.69378906 37.43515625 -25.84460938 38.6984375 -26 40 C-24.9627478 39.99214478 -24.9627478 39.99214478 -23.90454102 39.98413086 C-20.79053648 39.963425 -17.67654639 39.95036037 -14.5625 39.9375 C-13.47388672 39.92912109 -12.38527344 39.92074219 -11.26367188 39.91210938 C-10.22919922 39.90888672 -9.19472656 39.90566406 -8.12890625 39.90234375 C-7.17056885 39.89710693 -6.21223145 39.89187012 -5.22485352 39.88647461 C-3 40 -3 40 -2 41 C-1.90067847 42.69558726 -1.86919993 44.39525747 -1.8671875 46.09375 C-1.86589844 47.12371094 -1.86460937 48.15367187 -1.86328125 49.21484375 C-1.86714844 50.29894531 -1.87101563 51.38304687 -1.875 52.5 C-1.87113281 53.58410156 -1.86726562 54.66820312 -1.86328125 55.78515625 C-1.86457031 56.81511719 -1.86585938 57.84507812 -1.8671875 58.90625 C-1.86831543 59.85822266 -1.86944336 60.81019531 -1.87060547 61.79101562 C-2 64 -2 64 -3 65 C-4.70772358 65.08713831 -6.41898649 65.10700007 -8.12890625 65.09765625 C-9.16337891 65.09443359 -10.19785156 65.09121094 -11.26367188 65.08789062 C-12.35228516 65.07951172 -13.44089844 65.07113281 -14.5625 65.0625 C-16.2012207 65.05573242 -16.2012207 65.05573242 -17.87304688 65.04882812 C-20.58208495 65.03699826 -23.29101599 65.02051543 -26 65 C-25.99777939 66.06266586 -25.99555878 67.12533173 -25.99327087 68.22019958 C-25.97303998 78.21214891 -25.95802811 88.2040941 -25.94818783 98.19605923 C-25.94295887 103.33359566 -25.93586099 108.47111563 -25.92456055 113.60864258 C-25.91373213 118.5623141 -25.90772326 123.51596974 -25.90512276 128.46965218 C-25.90326843 130.36397616 -25.89964766 132.25829924 -25.89426994 134.1526165 C-25.88706011 136.79634386 -25.88600903 139.44000471 -25.88647461 142.08374023 C-25.88287933 142.87495773 -25.87928406 143.66617523 -25.87557983 144.48136902 C-25.88594784 149.88594784 -25.88594784 149.88594784 -27 151 C-31.30647636 151.25342236 -35.62445054 151.18522638 -39.9375 151.1875 C-41.15630859 151.19974609 -42.37511719 151.21199219 -43.63085938 151.22460938 C-45.37399414 151.22750977 -45.37399414 151.22750977 -47.15234375 151.23046875 C-48.22476318 151.23457764 -49.29718262 151.23868652 -50.40209961 151.24291992 C-53 151 -53 151 -55 149 C-55.18799291 146.31936573 -55.25181991 143.74290542 -55.22705078 141.06201172 C-55.22734283 140.24241974 -55.22763489 139.42282776 -55.22793579 138.57839966 C-55.22653944 135.86205557 -55.21096401 133.14598382 -55.1953125 130.4296875 C-55.19158345 128.54924672 -55.18873597 126.66880401 -55.18673706 124.7883606 C-55.17909207 119.83334002 -55.15943619 114.87843626 -55.1373291 109.92346191 C-55.11688928 104.8695636 -55.10773934 99.81564646 -55.09765625 94.76171875 C-55.07619109 84.84109445 -55.04204474 74.92055693 -55 65 C-56.39025391 65.01740234 -56.39025391 65.01740234 -57.80859375 65.03515625 C-59.00613281 65.04417969 -60.20367188 65.05320312 -61.4375 65.0625 C-62.63246094 65.07410156 -63.82742188 65.08570313 -65.05859375 65.09765625 C-68 65 -68 65 -69 64 C-69.0991657 62.37742456 -69.13079777 60.75060169 -69.1328125 59.125 C-69.13410156 58.14015625 -69.13539063 57.1553125 -69.13671875 56.140625 C-69.13285156 55.10421875 -69.12898437 54.0678125 -69.125 53 C-69.13080078 51.44539062 -69.13080078 51.44539062 -69.13671875 49.859375 C-69.13542969 48.87453125 -69.13414062 47.8896875 -69.1328125 46.875 C-69.13168457 45.96492187 -69.13055664 45.05484375 -69.12939453 44.1171875 C-69 42 -69 42 -68 41 C-65.81360547 40.92741054 -63.62499611 40.91626217 -61.4375 40.9375 C-59.64119141 40.95103516 -59.64119141 40.95103516 -57.80859375 40.96484375 C-56.88175781 40.97644531 -55.95492187 40.98804688 -55 41 C-55.04640625 39.88882813 -55.0928125 38.77765625 -55.140625 37.6328125 C-55.46576618 26.64353502 -54.87685177 18.42048319 -47.625 9.625 C-35.31819679 -3.30624988 -16.60882042 -2.94540658 0 0 Z " fill="#1D2831" transform="translate(772,582)" data-index="9"></path>
<path d="M0 0 C4.599375 -0.020625 9.19875 -0.04125 13.9375 -0.0625 C15.39019287 -0.071604 16.84288574 -0.08070801 18.33959961 -0.09008789 C19.47405518 -0.09258545 20.60851074 -0.09508301 21.77734375 -0.09765625 C23.52905884 -0.10551147 23.52905884 -0.10551147 25.31616211 -0.11352539 C28 0 28 0 29 1 C29.08775605 3.14558827 29.10695219 5.29404421 29.09765625 7.44140625 C29.09443359 8.74658203 29.09121094 10.05175781 29.08789062 11.39648438 C29.07953401 12.7851569 29.07106905 14.17382877 29.0625 15.5625 C29.05748666 16.95507656 29.05292347 18.34765481 29.04882812 19.74023438 C29.03699434 23.1601987 29.0205088 26.58007844 29 30 C30.30988892 29.99214478 30.30988892 29.99214478 31.64624023 29.98413086 C34.87589273 29.96712249 38.10552245 29.95456631 41.33520508 29.94506836 C42.73495228 29.9400292 44.1346942 29.93319784 45.53442383 29.92456055 C47.54245777 29.9124768 49.55052957 29.90730193 51.55859375 29.90234375 C53.37315063 29.89448853 53.37315063 29.89448853 55.22436523 29.88647461 C58 30 58 30 59 31 C59.0991657 32.62257544 59.13079777 34.24939831 59.1328125 35.875 C59.13410156 36.85984375 59.13539063 37.8446875 59.13671875 38.859375 C59.13285156 39.89578125 59.12898438 40.9321875 59.125 42 C59.12886719 43.03640625 59.13273437 44.0728125 59.13671875 45.140625 C59.13542969 46.12546875 59.13414062 47.1103125 59.1328125 48.125 C59.13168457 49.03507813 59.13055664 49.94515625 59.12939453 50.8828125 C59 53 59 53 58 54 C55.85441173 54.08775605 53.70595579 54.10695219 51.55859375 54.09765625 C50.25341797 54.09443359 48.94824219 54.09121094 47.60351562 54.08789062 C46.2148431 54.07953401 44.82617123 54.07106905 43.4375 54.0625 C42.04492344 54.05748666 40.65234519 54.05292347 39.25976562 54.04882812 C35.8398013 54.03699434 32.41992156 54.0205088 29 54 C29.04176386 61.25952859 29.11418342 68.51829641 29.20751953 75.77734375 C29.2356756 78.24472174 29.25691668 80.71218903 29.27099609 83.1796875 C29.29249902 86.73483826 29.33919018 90.28892139 29.390625 93.84375 C29.39185364 94.93989624 29.39308228 96.03604248 29.39434814 97.16540527 C29.52136748 103.86771867 30.40843127 108.29203083 34 114 C38.18403352 116.88216698 43.3467529 116.19091838 48.25 116.0625 C51.17073862 116.0010826 54.07774519 115.97929577 57 116 C59.41816166 118.41816166 58.18547019 124.68777819 58.1875 127.9375 C58.19974609 128.96552734 58.21199219 129.99355469 58.22460938 131.05273438 C58.22654297 132.03435547 58.22847656 133.01597656 58.23046875 134.02734375 C58.23457764 134.93218506 58.23868652 135.83702637 58.24291992 136.76928711 C58 139 58 139 56 141 C51.90716327 141.44938846 47.80645428 141.41429247 43.69091797 141.42553711 C41.66634653 141.43726058 39.64500487 141.4862511 37.62109375 141.53710938 C26.43828536 141.59782551 17.56548031 139.43101613 9 132 C7.26953125 129.703125 7.26953125 129.703125 5.8125 127.25 C5.32394531 126.45078125 4.83539063 125.6515625 4.33203125 124.828125 C0.52732487 116.75009738 0.73346075 108.86471656 0.8046875 100.09375 C0.80842456 98.75997125 0.81126825 97.42618972 0.81326294 96.09240723 C0.82084494 92.60717999 0.84044564 89.1221234 0.8626709 85.63696289 C0.88324744 82.07049873 0.89228973 78.5040066 0.90234375 74.9375 C0.92369755 67.9582639 0.95776661 60.97914018 1 54 C-0.21558594 54.01160156 -1.43117187 54.02320313 -2.68359375 54.03515625 C-4.26822764 54.04453278 -5.85286318 54.05363313 -7.4375 54.0625 C-8.23994141 54.07087891 -9.04238281 54.07925781 -9.86914062 54.08789062 C-11.91295221 54.0965143 -13.95683902 54.0522815 -16 54 C-17.65394117 52.34605883 -17.12999683 50.39684587 -17.1328125 48.125 C-17.13410156 47.14015625 -17.13539063 46.1553125 -17.13671875 45.140625 C-17.13285156 44.10421875 -17.12898437 43.0678125 -17.125 42 C-17.13080078 40.44539062 -17.13080078 40.44539062 -17.13671875 38.859375 C-17.13542969 37.87453125 -17.13414062 36.8896875 -17.1328125 35.875 C-17.13168457 34.96492187 -17.13055664 34.05484375 -17.12939453 33.1171875 C-17 31 -17 31 -16 30 C-13.3013095 29.92674564 -10.63497444 29.90777649 -7.9375 29.9375 C-5.318125 29.958125 -2.69875 29.97875 0 30 C0 20.1 0 10.2 0 0 Z " fill="#1B272F" transform="translate(157,593)" data-index="10" style="opacity: 1;"></path>
<path d="M0 0 C8.05886412 6.62453418 14.23077875 15.31029875 16.12890625 25.75 C17.06349636 39.49307101 15.17089266 50.80338231 6.12890625 61.75 C-2.63259229 70.88536582 -11.87467654 75.59286083 -24.58129883 76.08691406 C-37.55103015 76.32187842 -47.18750294 72.45468972 -56.87109375 63.75 C-65.61497449 54.11388653 -68.59285949 43.12063513 -68.1875 30.29296875 C-67.0645398 17.71858722 -61.13185496 7.86766252 -51.59765625 -0.26953125 C-35.87389788 -11.6906566 -15.63490287 -11.18776592 0 0 Z " fill="#D73339" transform="translate(537.87109375,163.25)" data-index="11"></path>
<path d="M0 0 C0.67417969 0.34160156 1.34835937 0.68320313 2.04296875 1.03515625 C2.87183594 1.44894531 3.70070313 1.86273438 4.5546875 2.2890625 C15.23558746 8.14839028 20.96916347 16.42217286 24.65625 27.953125 C26.81466426 39.57367852 24.37425326 49.7117643 18.48046875 59.72265625 C12.16599963 68.55341757 2.56327643 73.91786162 -7.95703125 76.03515625 C-19.61656342 77.37565336 -29.39254801 74.52284871 -38.89453125 67.71875 C-46.5942538 61.43355981 -52.08849683 52.9116953 -53.95703125 43.03515625 C-54.88611878 30.84981589 -52.27232028 20.8884027 -44.95703125 11.03515625 C-34.03268818 -1.04035415 -15.41371165 -6.40995745 0 0 Z " fill="#D73339" transform="translate(398.95703125,201.96484375)" data-index="12" style="opacity: 1;"></path>
<path d="M0 0 C8.80224407 6.36971508 15.14420784 14.42585065 18 25 C19.14227149 38.32207331 17.79397012 49.43750367 8.91015625 60 C1.09866976 68.17889792 -9.13497347 72.94274742 -20.5 73.3125 C-31.87218573 73.12662475 -41.72940194 68.68927807 -50 61 C-57.21251539 52.67786685 -60.57601878 44.52747112 -60.4375 33.5625 C-60.42992676 32.72283691 -60.42235352 31.88317383 -60.41455078 31.01806641 C-60.25073942 24.88052113 -59.42095523 20.19517735 -56 15 C-55.56429687 14.23558594 -55.12859375 13.47117188 -54.6796875 12.68359375 C-49.64342005 4.33109554 -41.59390729 -1.8479968 -32.12792969 -4.53051758 C-21.39774316 -6.89790499 -9.33914538 -5.82675543 0 0 Z " fill="#D73339" transform="translate(660,205)" data-index="13"></path>
<path d="M0 0 C1.21042969 -0.00128906 2.42085937 -0.00257813 3.66796875 -0.00390625 C4.94285156 -0.00003906 6.21773437 0.00382813 7.53125 0.0078125 C9.44357422 0.00201172 9.44357422 0.00201172 11.39453125 -0.00390625 C13.21017578 -0.00197266 13.21017578 -0.00197266 15.0625 0 C16.18205078 0.00112793 17.30160156 0.00225586 18.45507812 0.00341797 C21.03125 0.1328125 21.03125 0.1328125 22.03125 1.1328125 C22.12887523 2.5345958 22.15756658 3.94125703 22.15823364 5.34643555 C22.16105347 6.25509369 22.16387329 7.16375183 22.16677856 8.09994507 C22.16475433 9.10465851 22.1627301 10.10937195 22.16064453 11.14453125 C22.16239685 12.1964566 22.16414917 13.24838196 22.16595459 14.33218384 C22.17037543 17.82824324 22.16743429 21.32425253 22.1640625 24.8203125 C22.16473547 27.23787445 22.16570544 29.65543633 22.16696167 32.07299805 C22.16843896 37.14730471 22.16628309 42.22159381 22.16162109 47.29589844 C22.1559238 53.81665953 22.15920263 60.33737946 22.16519356 66.85813904 C22.16879833 71.85250156 22.16766097 76.84685424 22.16506577 81.84121704 C22.16439626 84.24630742 22.16522572 86.65139868 22.16754532 89.05648804 C22.17007048 92.41138085 22.16623317 95.766206 22.16064453 99.12109375 C22.16266876 100.12580719 22.16469299 101.13052063 22.16677856 102.16567993 C22.16254883 103.52866714 22.16254883 103.52866714 22.15823364 104.91918945 C22.15785662 105.71339798 22.15747959 106.50760651 22.15709114 107.32588196 C22.03125 109.1328125 22.03125 109.1328125 21.03125 110.1328125 C16.72477364 110.38623486 12.40679946 110.31803888 8.09375 110.3203125 C6.26553711 110.33868164 6.26553711 110.33868164 4.40039062 110.35742188 C2.65725586 110.36032227 2.65725586 110.36032227 0.87890625 110.36328125 C-0.7297229 110.36944458 -0.7297229 110.36944458 -2.37084961 110.37573242 C-4.96875 110.1328125 -4.96875 110.1328125 -6.96875 108.1328125 C-7.21763897 106.2184515 -7.21763897 106.2184515 -7.21598816 103.8368988 C-7.22018265 102.93528015 -7.22437714 102.0336615 -7.22869873 101.10472107 C-7.22307922 100.11295364 -7.21745972 99.12118622 -7.21166992 98.09936523 C-7.21356827 97.05704742 -7.21546661 96.01472961 -7.21742249 94.94082642 C-7.22113855 91.48261076 -7.21041487 88.02460336 -7.19921875 84.56640625 C-7.1980274 82.17269414 -7.19757369 79.77898156 -7.1978302 77.38526917 C-7.19626394 72.36399416 -7.18796283 67.34279031 -7.17456055 62.3215332 C-7.15756137 55.86917677 -7.15374638 49.41689856 -7.15450573 42.96452236 C-7.15423446 38.02076972 -7.14876041 33.07703435 -7.14150429 28.13328743 C-7.13831118 25.75331821 -7.13634872 23.37334703 -7.13561058 20.99337578 C-7.13345431 17.67450465 -7.12472587 14.3557183 -7.11401367 11.03686523 C-7.11446686 10.04307358 -7.11492004 9.04928192 -7.11538696 8.02537537 C-7.11112198 7.12657654 -7.10685699 6.22777771 -7.10246277 5.30174255 C-7.10078692 4.51620719 -7.09911108 3.73067183 -7.09738445 2.92133236 C-6.80427393 -1.15404536 -3.32723426 0.00335214 0 0 Z " fill="#1C2730" transform="translate(664.96875,622.8671875)" data-index="14" style="opacity: 1;"></path>
<path d="M0 0 C1.93552734 0.02707031 1.93552734 0.02707031 3.91015625 0.0546875 C7.06589698 0.10143921 10.22004101 0.16695795 13.375 0.25 C13.40896459 1.83708981 13.43309203 3.42439196 13.453125 5.01171875 C13.47487793 6.33755981 13.47487793 6.33755981 13.49707031 7.69018555 C13.22255674 13.44673512 10.40903641 18.21596359 6.375 22.25 C-1.77968235 27.57612095 -8.85012461 29.35139441 -18.625 28.25 C-23.13108418 26.58797849 -25.86370913 24.28812391 -28.6875 20.4375 C-30.21649948 15.23890175 -29.69003341 11.28745521 -27.1875 6.5 C-19.30107759 -0.42466358 -10.00145189 -0.26780407 0 0 Z " fill="#F2F1ED" transform="translate(398.625,685.75)" data-index="15"></path>
<path d="M0 0 C5.14882083 3.54598961 7.83616768 8.37917349 9.83203125 14.26171875 C9.83203125 16.24171875 9.83203125 18.22171875 9.83203125 20.26171875 C-6.66796875 20.26171875 -23.16796875 20.26171875 -40.16796875 20.26171875 C-39.06357642 12.53097245 -37.12535778 7.65615051 -31.29296875 2.44921875 C-22.00894801 -4.04959577 -10.33493571 -5.46466916 0 0 Z " fill="#EEEDEA" transform="translate(292.16796875,645.73828125)" data-index="16"></path>
<path d="M0 0 C4.42952014 2.98100408 7.47736935 7.28572442 8.6328125 12.515625 C8.94357975 17.77795044 7.26090624 22.26114307 4.1875 26.5 C-0.60560347 30.31491909 -4.51750065 31.87198528 -10.6875 31.78125 C-15.56401847 31.13582844 -18.92328264 28.48281919 -22.1875 24.875 C-25.71985392 19.71232888 -25.50147471 14.62247978 -24.8125 8.5 C-23.15017994 4.38719089 -20.6783391 2.12420958 -17.125 -0.4375 C-11.4149359 -2.26902999 -5.51030259 -2.70702638 0 0 Z " fill="#1C262F" transform="translate(680.8125,581.5)" data-index="17"></path>
<path d="M0 0 C0.33 0 0.66 0 1 0 C1 34.98 1 69.96 1 106 C9.58 106 18.16 106 27 106 C27 85.87 27 65.74 27 45 C27.99 45 28.98 45 30 45 C30.04628835 53.04923983 30.08185126 61.09842429 30.10362434 69.14776421 C30.11407298 72.8851783 30.1282517 76.6225015 30.15087891 80.35986328 C30.17256904 83.964905 30.18456049 87.56985917 30.18975449 91.17496109 C30.19345716 92.55211898 30.20068734 93.92927194 30.21146011 95.30639267 C30.22592335 97.23139545 30.22681648 99.15648587 30.22705078 101.08154297 C30.231492 102.17852509 30.23593323 103.2755072 30.24050903 104.4057312 C30 107 30 107 28 109 C25.41796875 109.25878906 25.41796875 109.25878906 22.1875 109.265625 C21.02992188 109.26820313 19.87234375 109.27078125 18.6796875 109.2734375 C17.46539062 109.26570312 16.25109375 109.25796875 15 109.25 C13.78570312 109.25773438 12.57140625 109.26546875 11.3203125 109.2734375 C9.58394531 109.26957031 9.58394531 109.26957031 7.8125 109.265625 C6.21341797 109.26224121 6.21341797 109.26224121 4.58203125 109.25878906 C2 109 2 109 0 107 C-0.24609566 105.08284569 -0.24609566 105.08284569 -0.24050903 102.69735718 C-0.24325836 101.79429337 -0.24600769 100.89122955 -0.24884033 99.96080017 C-0.24164978 98.9674617 -0.23445923 97.97412323 -0.22705078 96.95068359 C-0.22734283 95.90675949 -0.22763489 94.86283539 -0.22793579 93.78727722 C-0.22653842 90.32424715 -0.21095797 86.86143016 -0.1953125 83.3984375 C-0.19158382 81.0023307 -0.18873617 78.60622239 -0.18673706 76.21011353 C-0.17908918 69.89387831 -0.15943077 63.57773462 -0.1373291 57.26153564 C-0.11689552 50.82020303 -0.10774067 44.37885567 -0.09765625 37.9375 C-0.07618598 25.29162755 -0.04241887 12.64581863 0 0 Z " fill="#36434A" transform="translate(461,624)" data-index="18"></path>
<path d="M0 0 C0.33 0 0.66 0 1 0 C1.78097227 3.70961828 2.13812737 7.34370521 2.25 11.125 C2.27578125 11.95257812 2.3015625 12.78015625 2.328125 13.6328125 C1.90307703 16.69923 1.22847689 17.83639475 -1 20 C-3.58186903 20.38259981 -5.73721548 20.50711445 -8.31713867 20.45410156 C-9.05884811 20.45468567 -9.80055756 20.45526978 -10.56474304 20.45587158 C-13.01629444 20.45308486 -15.4666298 20.42196706 -17.91796875 20.390625 C-19.61761307 20.38316465 -21.317266 20.37747075 -23.016922 20.37347412 C-27.49042509 20.35820142 -31.9634087 20.31890585 -36.43670654 20.2746582 C-41.00135266 20.23374057 -45.56608272 20.21547063 -50.13085938 20.1953125 C-59.08746783 20.15241292 -68.04369072 20.08414204 -77 20 C-77 21.98 -77 23.96 -77 26 C-79 23 -79 23 -79 18 C-53.26 17.67 -27.52 17.34 -1 17 C-0.67 11.39 -0.34 5.78 0 0 Z " fill="#D3D6D7" transform="translate(331,666)" data-index="19"></path>
<path d="M0 0 C0.33 0 0.66 0 1 0 C1.08678303 3.95819611 1.14031733 7.91614934 1.1875 11.875 C1.21263672 13.00292969 1.23777344 14.13085938 1.26367188 15.29296875 C1.27333984 16.36933594 1.28300781 17.44570313 1.29296875 18.5546875 C1.3086792 19.54968262 1.32438965 20.54467773 1.34057617 21.56982422 C1.22818604 22.37178223 1.1157959 23.17374023 1 24 C-7.06225775 29.3748385 -18.3103721 26 -28 26 C-27.67 44.15 -27.34 62.3 -27 81 C-29.36994673 78.63005327 -29.94878728 76.99435602 -30.12025452 73.66511536 C-30.11803391 72.74800278 -30.11581329 71.8308902 -30.11352539 70.88598633 C-30.11344986 69.84513382 -30.11337433 68.80428131 -30.11329651 67.73188782 C-30.10813522 66.60993515 -30.10297394 65.48798248 -30.09765625 64.33203125 C-30.0962413 63.18208176 -30.09482635 62.03213226 -30.09336853 60.84733582 C-30.08776429 57.16903092 -30.07521104 53.49078655 -30.0625 49.8125 C-30.05748555 47.32096442 -30.05292255 44.82942789 -30.04882812 42.33789062 C-30.03864373 36.22521825 -30.01906901 30.11267701 -30 24 C-20.43 23.67 -10.86 23.34 -1 23 C-0.67 15.41 -0.34 7.82 0 0 Z " fill="#FBFBFA" transform="translate(216,623)" data-index="20" style="opacity: 1;"></path>
<path d="M0 0 C1.79244141 0.01740234 1.79244141 0.01740234 3.62109375 0.03515625 C5.41740234 0.04869141 5.41740234 0.04869141 7.25 0.0625 C8.17683594 0.07410156 9.10367188 0.08570313 10.05859375 0.09765625 C10.05859375 0.42765625 10.05859375 0.75765625 10.05859375 1.09765625 C6.09859375 1.09765625 2.13859375 1.09765625 -1.94140625 1.09765625 C-1.94140625 8.02765625 -1.94140625 14.95765625 -1.94140625 22.09765625 C0.01796875 22.07703125 1.97734375 22.05640625 3.99609375 22.03515625 C6.01692251 22.01388437 8.03895176 22.02521572 10.05859375 22.09765625 C12.07677583 24.11583833 11.24376278 28.24340133 11.26391602 31.01391602 C11.27381561 31.84311554 11.28371521 32.67231506 11.29391479 33.52664185 C11.32562495 36.28075254 11.35032463 39.03488051 11.375 41.7890625 C11.39556132 43.69335898 11.41655757 45.5976508 11.43797302 47.50193787 C11.4932786 52.52428431 11.54265031 57.54667252 11.59082031 62.5690918 C11.64097354 67.6899794 11.69669178 72.81080605 11.75195312 77.93164062 C11.85963842 87.98692715 11.9610602 98.0422665 12.05859375 108.09765625 C11.39859375 108.09765625 10.73859375 108.09765625 10.05859375 108.09765625 C10.05859375 80.37765625 10.05859375 52.65765625 10.05859375 24.09765625 C5.76859375 24.09765625 1.47859375 24.09765625 -2.94140625 24.09765625 C-4.59534742 22.44371508 -4.07140308 20.49450212 -4.07421875 18.22265625 C-4.07550781 17.2378125 -4.07679688 16.25296875 -4.078125 15.23828125 C-4.07425781 14.201875 -4.07039062 13.16546875 -4.06640625 12.09765625 C-4.07220703 10.54304687 -4.07220703 10.54304687 -4.078125 8.95703125 C-4.07683594 7.9721875 -4.07554687 6.98734375 -4.07421875 5.97265625 C-4.07309082 5.06257812 -4.07196289 4.1525 -4.07080078 3.21484375 C-3.86687161 -0.12189914 -3.40358906 0.11300096 0 0 Z " fill="#000104" transform="translate(706.94140625,622.90234375)" data-index="21"></path>
<path d="M0 0 C5.61 0 11.22 0 17 0 C17 20.46 17 40.92 17 62 C16.67 62 16.34 62 16 62 C14.837292 55.5668855 14.87236431 49.24667863 14.90234375 42.72265625 C14.9037587 41.5561705 14.90517365 40.38968475 14.90663147 39.18785095 C14.91220794 35.47937403 14.92475616 31.77095853 14.9375 28.0625 C14.94251804 25.5410165 14.94708041 23.01953205 14.95117188 20.49804688 C14.96216967 14.33200776 14.97941812 8.16601427 15 2 C10.38 2 5.76 2 1 2 C0.67 1.34 0.34 0.68 0 0 Z " fill="#FCFCFA" transform="translate(141,647)" data-index="22"></path>
<path d="M0 0 C4.98204139 4.13403434 9.56659962 8.50475038 14.08203125 13.14453125 C15.87004138 15.06021793 15.87004138 15.06021793 18 16 C17.67 16.66 17.34 17.32 17 18 C11.06 15.69 5.12 13.38 -1 11 C-1 10.01 -1 9.02 -1 8 C-0.34 8 0.32 8 1 8 C1.92091738 5.42143135 2.18506902 4.4056713 1.0234375 1.859375 C0.68570312 1.24578125 0.34796875 0.6321875 0 0 Z " fill="#D73036" transform="translate(426,506)" data-index="23"></path>
<path d="M0 0 C0.33 0 0.66 0 1 0 C1 8.25 1 16.5 1 25 C9.58 25 18.16 25 27 25 C27.33 26.32 27.66 27.64 28 29 C13.15 28.505 13.15 28.505 -2 28 C-1.34 27.34 -0.68 26.68 0 26 C0.27844932 23.28065665 0.27844932 23.28065665 0.1953125 20.1171875 C0.18886719 18.95058594 0.18242187 17.78398438 0.17578125 16.58203125 C0.15902344 15.35871094 0.14226562 14.13539063 0.125 12.875 C0.11146484 11.02841797 0.11146484 11.02841797 0.09765625 9.14453125 C0.07402548 6.09616185 0.04108054 3.04817618 0 0 Z " fill="#D0D1CF" transform="translate(188,595)" data-index="24" style="opacity: 1;"></path>
<path d="M0 0 C9.24 0 18.48 0 28 0 C28 3.3 28 6.6 28 10 C27.34 10.66 26.68 11.32 26 12 C25.67 11.67 25.34 11.34 25 11 C25 8.36 25 5.72 25 3 C16.75 3 8.5 3 0 3 C0 2.01 0 1.02 0 0 Z " fill="#DBDDDC" transform="translate(384,686)" data-index="25"></path>
<path d="M0 0 C1.79244141 0.01740234 1.79244141 0.01740234 3.62109375 0.03515625 C5.41740234 0.04869141 5.41740234 0.04869141 7.25 0.0625 C8.17683594 0.07410156 9.10367188 0.08570313 10.05859375 0.09765625 C10.05859375 0.42765625 10.05859375 0.75765625 10.05859375 1.09765625 C6.09859375 1.09765625 2.13859375 1.09765625 -1.94140625 1.09765625 C-1.94140625 8.02765625 -1.94140625 14.95765625 -1.94140625 22.09765625 C2.01859375 22.09765625 5.97859375 22.09765625 10.05859375 22.09765625 C10.05859375 22.75765625 10.05859375 23.41765625 10.05859375 24.09765625 C7.91282738 24.12451563 5.7669673 24.14398713 3.62109375 24.16015625 C2.42613281 24.17175781 1.23117187 24.18335938 0 24.1953125 C-2.94140625 24.09765625 -2.94140625 24.09765625 -3.94140625 23.09765625 C-4.04057195 21.47508081 -4.07220402 19.84825794 -4.07421875 18.22265625 C-4.07550781 17.2378125 -4.07679688 16.25296875 -4.078125 15.23828125 C-4.07425781 14.201875 -4.07039062 13.16546875 -4.06640625 12.09765625 C-4.07220703 10.54304687 -4.07220703 10.54304687 -4.078125 8.95703125 C-4.07683594 7.9721875 -4.07554687 6.98734375 -4.07421875 5.97265625 C-4.07309082 5.06257812 -4.07196289 4.1525 -4.07080078 3.21484375 C-3.86687161 -0.12189914 -3.40358906 0.11300096 0 0 Z " fill="#0D1419" transform="translate(706.94140625,622.90234375)" data-index="26"></path>
<path d="M0 0 C1.485 0.99 1.485 0.99 3 2 C3 3.32 3 4.64 3 6 C3.55985596 5.98952637 4.11971191 5.97905273 4.6965332 5.96826172 C7.23514307 5.92666674 9.7736812 5.90066315 12.3125 5.875 C13.19357422 5.85824219 14.07464844 5.84148438 14.98242188 5.82421875 C15.82998047 5.81777344 16.67753906 5.81132813 17.55078125 5.8046875 C18.72120972 5.78897705 18.72120972 5.78897705 19.9152832 5.77294922 C22 6 22 6 25 8 C25.34057617 10.33837891 25.34057617 10.33837891 25.29296875 13.2265625 C25.28330078 14.2578125 25.27363281 15.2890625 25.26367188 16.3515625 C25.23853516 17.43179688 25.21339844 18.51203125 25.1875 19.625 C25.16719727 21.25695312 25.16719727 21.25695312 25.14648438 22.921875 C25.11104754 25.61507409 25.06164331 28.30729374 25 31 C24.67 31 24.34 31 24 31 C23.67 23.74 23.34 16.48 23 9 C11.615 8.505 11.615 8.505 0 8 C0 5.36 0 2.72 0 0 Z " fill="#EAEAE9" transform="translate(746,614)" data-index="27"></path>
<path d="M0 0 C0.66 0.33 1.32 0.66 2 1 C1.4225 1.53109375 0.845 2.0621875 0.25 2.609375 C-0.4925 3.31578125 -1.235 4.0221875 -2 4.75 C-2.7425 5.44609375 -3.485 6.1421875 -4.25 6.859375 C-6.42195334 9.05531957 -6.42195334 9.05531957 -6 13 C-6.66 13 -7.32 13 -8 13 C-8.33 13.66 -8.66 14.32 -9 15 C-8.01 16.485 -8.01 16.485 -7 18 C-8.98 17.67 -10.96 17.34 -13 17 C-11.51299286 12.17170572 -8.78716744 9.2512231 -5.375 5.6875 C-4.6015625 4.86282227 -4.6015625 4.86282227 -3.8125 4.02148438 C-2.54799382 2.67501946 -1.27485078 1.33667465 0 0 Z " fill="#D41E22" transform="translate(597,302)" data-index="28"></path>
<path d="M0 0 C1.3418344 2.68366879 0.73004953 4.15280683 0 7 C-0.33 7.33 -0.66 7.66 -1 8 C-1.36162029 9.32594105 -1.69728039 10.65938457 -2 12 C-2 11.34 -2 10.68 -2 10 C-2.66 10 -3.32 10 -4 10 C-3.52449439 8.51965236 -3.04448784 7.04074979 -2.5625 5.5625 C-2.29566406 4.73878906 -2.02882813 3.91507813 -1.75390625 3.06640625 C-1 1 -1 1 0 0 Z M-3 12 C-2.67 12 -2.34 12 -2 12 C-2 19.26 -2 26.52 -2 34 C-2.33 34 -2.66 34 -3 34 C-3 26.74 -3 19.48 -3 12 Z " fill="#E9E9E7" transform="translate(567,653)" data-index="29"></path>
<path d="M0 0 C0.66 0 1.32 0 2 0 C1.67 2.31 1.34 4.62 1 7 C3.29629994 8.14814997 5.07698086 8.30769809 7.625 8.5625 C8.44226563 8.64628906 9.25953125 8.73007812 10.1015625 8.81640625 C10.72804688 8.87699219 11.35453125 8.93757812 12 9 C8.78817851 10.90608098 6.46117397 11.22266247 2.75 11.125 C1.85796875 11.10695313 0.9659375 11.08890625 0.046875 11.0703125 C-0.96632813 11.03550781 -0.96632813 11.03550781 -2 11 C-2.19622241 6.78121808 -1.80230168 3.82989106 0 0 Z " fill="#171F25" transform="translate(348,645)" data-index="30"></path>
<path d="M0 0 C4.98204139 4.13403434 9.56659962 8.50475038 14.08203125 13.14453125 C15.87004138 15.06021793 15.87004138 15.06021793 18 16 C17.67 16.66 17.34 17.32 17 18 C12.20536375 15.97559803 10.55428948 14.42088564 8 10 C5.93704866 7.85881298 3.80829242 5.80853502 1.64453125 3.76953125 C0 2 0 2 0 0 Z " fill="#D52123" transform="translate(426,506)" data-index="31"></path>
<path d="M0 0 C1.485 0.99 1.485 0.99 3 2 C3 3.32 3 4.64 3 6 C9.27 6 15.54 6 22 6 C22 6.33 22 6.66 22 7 C11.11 7.495 11.11 7.495 0 8 C0 5.36 0 2.72 0 0 Z " fill="#E0DFDE" transform="translate(746,614)" data-index="32"></path>
<path d="M0 0 C0.33 0.66 0.66 1.32 1 2 C3.97 1.34 6.94 0.68 10 0 C8.35891233 3.28217533 4.82652566 3.9066035 1.5625 5.1875 C0.86833984 5.47302734 0.17417969 5.75855469 -0.54101562 6.05273438 C-2.33611416 6.76695073 -4.16676255 7.39030809 -6 8 C-6.66 7.67 -7.32 7.34 -8 7 C-5.36 4.69 -2.72 2.38 0 0 Z " fill="#D31F20" transform="translate(588,516)" data-index="33"></path>
<path d="M0 0 C6.27 0.33 12.54 0.66 19 1 C19 1.33 19 1.66 19 2 C3.49425287 3.74712644 3.49425287 3.74712644 0 2 C0 1.34 0 0.68 0 0 Z " fill="#E6E6E6" transform="translate(348,656)" data-index="34"></path>
<path d="M0 0 C0.33 0.99 0.66 1.98 1 3 C-0.66666667 3.33333333 -2.33333333 3.66666667 -4 4 C-5.11375 4.309375 -5.11375 4.309375 -6.25 4.625 C-10.24533205 5.16981801 -14.02670048 4.56266769 -18 4 C-18 3.67 -18 3.34 -18 3 C-16.86820312 2.86722656 -15.73640625 2.73445312 -14.5703125 2.59765625 C-13.08851821 2.4194658 -11.60674864 2.24106971 -10.125 2.0625 C-9.00544922 1.93198242 -9.00544922 1.93198242 -7.86328125 1.79882812 C-3.8046769 1.36673937 -3.8046769 1.36673937 0 0 Z " fill="#282F35" transform="translate(293,709)" data-index="35"></path>
<path d="M0 0 C1.58294782 -0.05437607 3.16644256 -0.09296271 4.75 -0.125 C5.63171875 -0.14820313 6.5134375 -0.17140625 7.421875 -0.1953125 C10.14906426 0.01129275 11.71315408 0.52694159 14 2 C14.33 2.66 14.66 3.32 15 4 C12.03 3.67 9.06 3.34 6 3 C6 2.67 6 2.34 6 2 C3.03 1.505 3.03 1.505 0 1 C0 0.67 0 0.34 0 0 Z " fill="#D32529" transform="translate(643,290)" data-index="36"></path>
<path d="M0 0 C0.33 0.66 0.66 1.32 1 2 C-0.62490945 5.16857344 -2.44309069 7.55426066 -5 10 C-5.99 11.485 -5.99 11.485 -7 13 C-7.99 13.33 -8.98 13.66 -10 14 C-8.66189532 11.07289602 -7.14313267 8.83245076 -5 6.4375 C-3.12253722 4.33004803 -1.57778314 2.36667471 0 0 Z " fill="#F8FAF8" transform="translate(549,217)" data-index="37"></path>
<path d="M0 0 C0.66 0.33 1.32 0.66 2 1 C-0.31537955 4.72114571 -2.28579473 7.61229661 -6 10 C-6.66 9.67 -7.32 9.34 -8 9 C-5.36 6.03 -2.72 3.06 0 0 Z " fill="#D42126" transform="translate(485,164)" data-index="38"></path>
<path d="M0 0 C0.33 0 0.66 0 1 0 C1.103125 1.051875 1.20625 2.10375 1.3125 3.1875 C1.98235011 6.90212333 3.03112006 8.867691 5 12 C4.67 12.66 4.34 13.32 4 14 C-0.12221017 9.7448153 -0.71360991 6.7278019 -1 1 C-0.67 0.67 -0.34 0.34 0 0 Z " fill="#DFE0E1" transform="translate(370,697)" data-index="39"></path>
<path d="M0 0 C0.33 0 0.66 0 1 0 C1 1.65 1 3.3 1 5 C1.66 5 2.32 5 3 5 C3.33 8.63 3.66 12.26 4 16 C0.42530375 12.42530375 0.03082717 7.97105579 -0.125 3.0625 C-0.08375 2.051875 -0.0425 1.04125 0 0 Z " fill="#0C1116" transform="translate(224,687)" data-index="40"></path>
<path d="M0 0 C1.62490954 -0.02698189 3.24994633 -0.04638757 4.875 -0.0625 C5.77992188 -0.07410156 6.68484375 -0.08570313 7.6171875 -0.09765625 C10 0 10 0 12 1 C12 1.66 12 2.32 12 3 C8.37 3 4.74 3 1 3 C0.67 2.01 0.34 1.02 0 0 Z " fill="#2A333B" transform="translate(580,643)" data-index="41"></path>
<path d="M0 0 C1.73662334 3.22515763 2.8905928 6.51329166 4 10 C3.01 10 2.02 10 1 10 C0.63883954 8.5225254 0.28624952 7.04295325 -0.0625 5.5625 C-0.25972656 4.73878906 -0.45695313 3.91507813 -0.66015625 3.06640625 C-0.82837891 2.04353516 -0.82837891 2.04353516 -1 1 C-0.67 0.67 -0.34 0.34 0 0 Z " fill="#EBEBE9" transform="translate(812,625)" data-index="42" style="opacity: 1;"></path>
<path d="M0 0 C0.66 0 1.32 0 2 0 C2 1.65 2 3.3 2 5 C0.35 5.33 -1.3 5.66 -3 6 C-1.125 1.125 -1.125 1.125 0 0 Z " fill="#D62C31" transform="translate(591,513)" data-index="43"></path>
<path d="M0 0 C0.99 0.33 1.98 0.66 3 1 C4.1875 4.5625 4.1875 4.5625 5 8 C4.01 8 3.02 8 2 8 C1.34 5.36 0.68 2.72 0 0 Z " fill="#EAEBE9" transform="translate(822,659)" data-index="44"></path>
<path d="M0 0 C0 2.64 0 5.28 0 8 C-0.99 8.33 -1.98 8.66 -3 9 C-3 6.36 -3 3.72 -3 1 C-1 0 -1 0 0 0 Z " fill="#253037" transform="translate(689,592)" data-index="45"></path>
<path d="M0 0 C2.31 0.33 4.62 0.66 7 1 C4.4345406 3.5654594 2.52313332 3.54046087 -1 4 C-0.67 2.68 -0.34 1.36 0 0 Z " fill="#F2E7E5" transform="translate(507,316)" data-index="46"></path>
<path d="M0 0 C0.66 0 1.32 0 2 0 C3.5625 2.8125 3.5625 2.8125 5 6 C4.67 6.99 4.34 7.98 4 9 C1.49701566 6.06171403 0.53069061 3.82097239 0 0 Z " fill="#E5E5E5" transform="translate(253,692)" data-index="47"></path>
<path d="M0 0 C3 3 3 3 3.1875 5.6875 C3.0946875 6.8321875 3.0946875 6.8321875 3 8 C2.01 8.33 1.02 8.66 0 9 C0 6.03 0 3.06 0 0 Z " fill="#D83C41" transform="translate(381,380)" data-index="48"></path>
<path d="M0 0 C-1.32 0.33 -2.64 0.66 -4 1 C-4 1.66 -4 2.32 -4 3 C-5.98 3 -7.96 3 -10 3 C-4.37755102 -1.45918367 -4.37755102 -1.45918367 0 0 Z " fill="#D51A1F" transform="translate(468,337)" data-index="49"></path>
</svg>